<?xml version="1.0" ?>

<!DOCTYPE svg  PUBLIC '-//W3C//DTD SVG 1.1//EN'  'http://www.w3.org/Graphics/SVG/1.1/DTD/svg11.dtd'>

<!-- Uploaded to: SVG Repo, www.svgrepo.com, Generator: SVG Repo Mixer Tools -->
<svg fill="#ffff" width="800px" height="800px" viewBox="0 0 48 48" style="fill-rule:evenodd;clip-rule:evenodd;stroke-linejoin:round;stroke-miterlimit:1.41421;" version="1.1" xml:space="preserve" xmlns="http://www.w3.org/2000/svg" xmlns:serif="http://www.serif.com/" xmlns:xlink="http://www.w3.org/1999/xlink">

<g id="options_graph">

<g id="window">

<path d="M3.562,35.226L3.562,12.297C3.562,10.627 4.918,9.271 6.588,9.271L41.237,9.271C42.905,9.271 44.265,10.625 44.265,12.297L44.265,35.226C44.265,36.896 42.909,38.252 41.237,38.252L6.588,38.252C4.918,38.252 3.562,36.896 3.562,35.226ZM42.351,35.226L42.351,12.297C42.351,11.687 41.853,11.187 41.237,11.187L6.588,11.187C5.976,11.187 5.478,11.685 5.478,12.297L5.478,35.226C5.478,35.839 5.976,36.336 6.588,36.336L41.237,36.336C41.851,36.336 42.351,35.839 42.351,35.226Z" id="window1"/>

<path d="M6.924,13.111C6.924,12.604 7.337,12.191 7.843,12.191C8.35,12.191 8.761,12.604 8.761,13.111C8.761,13.614 8.35,14.028 7.843,14.028C7.337,14.028 6.924,13.614 6.924,13.111ZM9.525,13.111C9.525,12.604 9.936,12.191 10.442,12.191C10.949,12.191 11.361,12.604 11.361,13.111C11.361,13.614 10.949,14.028 10.442,14.028C9.936,14.028 9.525,13.614 9.525,13.111ZM12.123,13.111C12.123,12.604 12.535,12.191 13.04,12.191C13.546,12.191 13.959,12.604 13.959,13.111C13.959,13.614 13.546,14.028 13.04,14.028C12.535,14.028 12.123,13.614 12.123,13.111Z" id="window-actions"/>

</g>

<path d="M10.032,33.839L10.03,33.06C10.217,33.136 10.418,33.177 10.633,33.177C10.83,33.177 11.019,33.142 11.191,33.077L11.191,33.839L10.032,33.839ZM16.681,33.839L16.681,32.679L17.84,32.679L17.84,33.839L16.681,33.839ZM23.333,33.839L23.333,32.679L24.493,32.679L24.493,33.839L23.333,33.839ZM29.983,33.839L29.983,32.679L31.142,32.679L31.142,33.839L29.983,33.839ZM36.635,33.839L36.635,32.679L37.795,32.679L37.795,33.839L36.635,33.839ZM16.681,31.987L16.681,30.83L17.84,30.83L17.84,31.987L16.681,31.987ZM23.333,31.987L23.333,30.83L24.493,30.83L24.493,31.987L23.333,31.987ZM29.983,31.987L29.983,30.83L31.142,30.83L31.142,31.987L29.983,31.987ZM36.635,31.987L36.635,30.83L37.795,30.83L37.795,31.987L36.635,31.987ZM16.681,30.138L16.681,28.979L17.84,28.979L17.84,30.138L16.681,30.138ZM23.333,30.138L23.333,28.979L24.493,28.979L24.493,30.138L23.333,30.138ZM29.983,30.138L29.981,29.004C30.172,29.084 30.383,29.129 30.604,29.129C30.791,29.129 30.972,29.098 31.142,29.036L31.142,30.138L29.983,30.138ZM36.635,30.138L36.635,28.979L37.795,28.979L37.795,30.138L36.635,30.138ZM10.03,30.106L10.032,28.979L11.191,28.979L11.191,30.091L11.191,30.087C11.019,30.021 10.83,29.985 10.633,29.985C10.418,29.985 10.217,30.028 10.03,30.106ZM10.034,28.189L10.034,27.031L11.193,27.031L11.193,28.189L10.034,28.189ZM16.683,28.189L16.683,27.031L17.843,27.031L17.843,28.189L16.683,28.189ZM23.336,28.189L23.336,27.031L24.495,27.031L24.495,28.189L23.336,28.189ZM36.637,28.189L36.637,27.031L37.797,27.031L37.797,28.189L36.637,28.189ZM10.034,26.339L10.034,25.18L11.191,25.18L11.191,26.339L10.034,26.339ZM16.683,26.339L16.681,25.838C16.898,25.948 17.141,26.007 17.401,26.007C17.551,26.007 17.7,25.986 17.84,25.946L17.84,26.339L16.683,26.339ZM23.336,26.339L23.336,25.18L24.493,25.18L24.493,26.339L23.336,26.339ZM36.637,26.339L36.637,25.18L37.795,25.18L37.795,26.339L36.637,26.339ZM29.983,26.063L29.985,25.18L31.142,25.18L31.142,26.04L31.142,26.033C30.972,25.972 30.791,25.937 30.604,25.937C30.383,25.937 30.174,25.984 29.983,26.063ZM10.034,24.489L10.034,23.331L11.191,23.331L11.191,24.489L10.034,24.489ZM23.336,24.489L23.333,23.799C23.512,23.869 23.707,23.908 23.914,23.908C24.118,23.908 24.314,23.869 24.493,23.799L24.493,24.489L23.336,24.489ZM29.985,24.489L29.985,23.331L31.142,23.331L31.142,24.489L29.985,24.489ZM36.637,24.489L36.637,23.331L37.795,23.331L37.795,24.489L36.637,24.489ZM10.034,22.637L10.034,21.479L11.191,21.479L11.191,22.637L10.034,22.637ZM16.683,22.637L16.683,21.479L17.84,21.479L17.84,22.637L16.683,22.637ZM29.985,22.637L29.985,21.479L31.142,21.479L31.142,22.637L29.985,22.637ZM36.637,22.637L36.637,21.479L37.795,21.479L37.795,22.637L36.637,22.637ZM10.032,20.788L10.032,19.628L11.191,19.628L11.191,20.788L10.032,20.788ZM16.681,20.788L16.681,19.628L17.84,19.628L17.84,20.788L16.681,20.788ZM23.333,20.788L23.333,19.628L24.493,19.628L24.493,20.788L24.384,20.788C24.235,20.741 24.078,20.716 23.914,20.716C23.748,20.716 23.59,20.741 23.442,20.788L23.333,20.788ZM29.983,20.788L29.983,19.628L31.142,19.628L31.142,20.788L29.983,20.788ZM10.032,18.937L10.032,17.779L11.191,17.779L11.191,18.937L10.032,18.937ZM16.681,18.937L16.681,17.779L17.84,17.779L17.84,18.937L16.681,18.937ZM23.333,18.937L23.333,17.779L24.493,17.779L24.493,18.937L23.333,18.937ZM29.983,18.937L29.983,17.779L31.142,17.779L31.142,18.937L29.983,18.937ZM37.206,18.242C37.003,18.242 36.81,18.281 36.633,18.349L36.635,18.353L36.635,17.779L37.795,17.779L37.795,18.36L37.795,18.357C37.612,18.283 37.411,18.242 37.206,18.242ZM10.032,17.087L10.032,15.928L11.191,15.928L11.191,17.087L10.032,17.087ZM16.681,17.087L16.681,15.928L17.84,15.928L17.84,17.087L16.681,17.087ZM23.333,17.087L23.333,15.928L24.493,15.928L24.493,17.087L23.333,17.087ZM29.983,17.087L29.983,15.928L31.142,15.928L31.142,17.087L29.983,17.087ZM36.635,17.087L36.635,15.928L37.795,15.928L37.795,17.087L36.635,17.087Z" id="lines"/>

<path d="M8.506,31.581C8.506,30.409 9.459,29.453 10.633,29.453C10.842,29.453 11.046,29.484 11.24,29.542L15.398,25.139C15.317,24.912 15.272,24.667 15.272,24.412C15.272,23.239 16.226,22.284 17.401,22.284C17.992,22.284 18.528,22.529 18.913,22.92L21.81,21.986C21.967,20.969 22.85,20.183 23.914,20.183C25.086,20.183 26.042,21.139 26.042,22.312C26.042,22.468 26.025,22.62 25.993,22.767L29.579,25.682L29.57,25.674C29.876,25.504 30.227,25.406 30.604,25.406C30.813,25.406 31.017,25.438 31.211,25.495L35.226,20.626C35.13,20.384 35.077,20.117 35.077,19.838C35.077,18.666 36.031,17.711 37.206,17.711C38.378,17.711 39.333,18.666 39.333,19.838C39.333,21.013 38.378,21.967 37.206,21.967C37.016,21.967 36.835,21.943 36.662,21.899L32.6,26.823L32.607,26.817C32.687,27.04 32.732,27.283 32.732,27.533C32.732,28.708 31.777,29.662 30.604,29.662C29.429,29.662 28.477,28.708 28.477,27.533C28.477,27.444 28.481,27.353 28.493,27.266L28.502,27.272L24.78,24.255C24.516,24.374 24.222,24.439 23.914,24.439C23.322,24.439 22.788,24.199 22.401,23.81L19.498,24.746C19.341,25.763 18.458,26.54 17.401,26.54C17.188,26.54 16.983,26.51 16.79,26.452L12.627,30.864L12.634,30.857C12.715,31.083 12.761,31.328 12.761,31.581C12.761,32.756 11.806,33.708 10.633,33.708C9.459,33.708 8.506,32.756 8.506,31.581ZM11.698,31.581C11.698,30.998 11.216,30.516 10.633,30.516C10.048,30.516 9.569,30.998 9.569,31.581C9.569,32.166 10.048,32.645 10.633,32.645C11.216,32.645 11.698,32.166 11.698,31.581ZM31.669,27.533C31.669,26.95 31.187,26.47 30.604,26.47C30.019,26.47 29.54,26.95 29.54,27.533C29.54,28.118 30.019,28.598 30.604,28.598C31.187,28.598 31.669,28.118 31.669,27.533ZM31.205,25.504L31.211,25.495L31.205,25.504ZM18.464,24.412C18.464,23.828 17.984,23.348 17.401,23.348C16.815,23.348 16.336,23.828 16.336,24.412C16.336,24.997 16.815,25.476 17.401,25.476C17.984,25.476 18.464,24.997 18.464,24.412ZM19.494,24.746L19.498,24.746L19.494,24.746ZM24.978,22.312C24.978,21.729 24.497,21.247 23.914,21.247C23.329,21.247 22.85,21.729 22.85,22.312C22.85,22.897 23.329,23.375 23.914,23.375C24.497,23.375 24.978,22.897 24.978,22.312ZM38.269,19.838C38.269,19.256 37.788,18.775 37.206,18.775C36.62,18.775 36.141,19.256 36.141,19.838C36.141,20.424 36.62,20.903 37.206,20.903C37.788,20.903 38.269,20.424 38.269,19.838Z" id="options"/>

</g>

</svg>